# xmcd
#
# Track frame offsets:
#	150
#	16205
#	27157
#	38857
#	51542
#	65557
#	77865
#	93225
#	108230
#	119982
#	132087
#	146620
#	157912
#	171140
#	184972
#	199735
#	210667
#	224897
#
# Disc length: 3173 seconds
#
# Revision: 1
# Processed by: cddbd v1.4PL0 Copyright (c) Steve Scherf et al.
# Submitted via: CDmax 1.9
#
DISCID=0f0c6312
DTITLE=Julio Jaramillo - Grandes Exitos
DYEAR=1998
DGENRE=Espanol
TTITLE0=La Llorona
TTITLE1=Pobre Mesera
TTITLE2=Sin Un Amor
TTITLE3=Sonia
TTITLE4=Nuestro Juramento
TTITLE5=Amor Sin Esperanza
TTITLE6=Odio En La Sangre
TTITLE7=De Cigarro En Cigarro
TTITLE8=En Un Bote De Vela
TTITLE9=Amar Y Vivir
TTITLE10=Fatalidad
TTITLE11=Cobardia
TTITLE12=Devuelveme El Corazon
TTITLE13=Hojas Muertas
TTITLE14=Sombras
TTITLE15=Que Te Perdone Dios
TTITLE16=Te Odio Y Te Quiero
TTITLE17=Una Tercera Persona
EXTD=
EXTT0=
EXTT1=
EXTT2=
EXTT3=
EXTT4=
EXTT5=
EXTT6=
EXTT7=
EXTT8=
EXTT9=
EXTT10=
EXTT11=
EXTT12=
EXTT13=
EXTT14=
EXTT15=
EXTT16=
EXTT17=
PLAYORDER=
